<svg height="1678" width="720" xmlns="http://www.w3.org/2000/svg">
<rect height="1678" fill="#555" width="720"></rect>
<text fill="#7f7" font-family="Courier New" font-size="12" xml:space="preserve">
<tspan x="10" y="26">5 megabytes installed</tspan>
<tspan x="10" y="42"></tspan>
<tspan x="10" y="58">node_modules</tspan>
<tspan x="10" y="74">└─┬ gulp-include@2.3.1 </tspan>
<tspan x="10" y="90">  ├─┬ event-stream@3.1.7 </tspan>
<tspan x="10" y="106">  │ ├── duplexer@0.1.1 </tspan>
<tspan x="10" y="122">  │ ├── from@0.1.7 </tspan>
<tspan x="10" y="138">  │ ├── map-stream@0.1.0 </tspan>
<tspan x="10" y="154">  │ ├── pause-stream@0.0.11 </tspan>
<tspan x="10" y="170">  │ ├── split@0.2.10 </tspan>
<tspan x="10" y="186">  │ ├── stream-combiner@0.0.4 </tspan>
<tspan x="10" y="202">  │ └── through@2.3.8 </tspan>
<tspan x="10" y="218">  ├─┬ glob@5.0.15 </tspan>
<tspan x="10" y="234">  │ ├─┬ inflight@1.0.6 </tspan>
<tspan x="10" y="250">  │ │ └── wrappy@1.0.2 </tspan>
<tspan x="10" y="266">  │ ├── inherits@2.0.3 </tspan>
<tspan x="10" y="282">  │ ├─┬ minimatch@3.0.3 </tspan>
<tspan x="10" y="298">  │ │ └─┬ brace-expansion@1.1.7 </tspan>
<tspan x="10" y="314">  │ │   ├── balanced-match@0.4.2 </tspan>
<tspan x="10" y="330">  │ │   └── concat-map@0.0.1 </tspan>
<tspan x="10" y="346">  │ ├── once@1.4.0 </tspan>
<tspan x="10" y="362">  │ └── path-is-absolute@1.0.1 </tspan>
<tspan x="10" y="378">  ├─┬ gulp-util@2.2.20 </tspan>
<tspan x="10" y="394">  │ ├─┬ chalk@0.5.1 </tspan>
<tspan x="10" y="410">  │ │ ├── ansi-styles@1.1.0 </tspan>
<tspan x="10" y="426">  │ │ ├── escape-string-regexp@1.0.5 </tspan>
<tspan x="10" y="442">  │ │ ├─┬ has-ansi@0.1.0 </tspan>
<tspan x="10" y="458">  │ │ │ └── ansi-regex@0.2.1 </tspan>
<tspan x="10" y="474">  │ │ ├── strip-ansi@0.3.0 </tspan>
<tspan x="10" y="490">  │ │ └── supports-color@0.2.0 </tspan>
<tspan x="10" y="506">  │ ├─┬ dateformat@1.0.12 </tspan>
<tspan x="10" y="522">  │ │ ├── get-stdin@4.0.1 </tspan>
<tspan x="10" y="538">  │ │ └─┬ meow@3.7.0 </tspan>
<tspan x="10" y="554">  │ │   ├─┬ camelcase-keys@2.1.0 </tspan>
<tspan x="10" y="570">  │ │   │ └── camelcase@2.1.1 </tspan>
<tspan x="10" y="586">  │ │   ├── decamelize@1.2.0 </tspan>
<tspan x="10" y="602">  │ │   ├─┬ loud-rejection@1.6.0 </tspan>
<tspan x="10" y="618">  │ │   │ ├─┬ currently-unhandled@0.4.1 </tspan>
<tspan x="10" y="634">  │ │   │ │ └── array-find-index@1.0.2 </tspan>
<tspan x="10" y="650">  │ │   │ └── signal-exit@3.0.2 </tspan>
<tspan x="10" y="666">  │ │   ├── map-obj@1.0.1 </tspan>
<tspan x="10" y="682">  │ │   ├── minimist@1.2.0 </tspan>
<tspan x="10" y="698">  │ │   ├─┬ normalize-package-data@2.3.8 </tspan>
<tspan x="10" y="714">  │ │   │ ├── hosted-git-info@2.4.2 </tspan>
<tspan x="10" y="730">  │ │   │ ├─┬ is-builtin-module@1.0.0 </tspan>
<tspan x="10" y="746">  │ │   │ │ └── builtin-modules@1.1.1 </tspan>
<tspan x="10" y="762">  │ │   │ ├── semver@5.3.0 </tspan>
<tspan x="10" y="778">  │ │   │ └─┬ validate-npm-package-license@3.0.1 </tspan>
<tspan x="10" y="794">  │ │   │   ├─┬ spdx-correct@1.0.2 </tspan>
<tspan x="10" y="810">  │ │   │   │ └── spdx-license-ids@1.2.2 </tspan>
<tspan x="10" y="826">  │ │   │   └── spdx-expression-parse@1.0.4 </tspan>
<tspan x="10" y="842">  │ │   ├── object-assign@4.1.1 </tspan>
<tspan x="10" y="858">  │ │   ├─┬ read-pkg-up@1.0.1 </tspan>
<tspan x="10" y="874">  │ │   │ ├─┬ find-up@1.1.2 </tspan>
<tspan x="10" y="890">  │ │   │ │ ├── path-exists@2.1.0 </tspan>
<tspan x="10" y="906">  │ │   │ │ └─┬ pinkie-promise@2.0.1 </tspan>
<tspan x="10" y="922">  │ │   │ │   └── pinkie@2.0.4 </tspan>
<tspan x="10" y="938">  │ │   │ └─┬ read-pkg@1.1.0 </tspan>
<tspan x="10" y="954">  │ │   │   ├─┬ load-json-file@1.1.0 </tspan>
<tspan x="10" y="970">  │ │   │   │ ├── graceful-fs@4.1.11 </tspan>
<tspan x="10" y="986">  │ │   │   │ ├─┬ parse-json@2.2.0 </tspan>
<tspan x="10" y="1002">  │ │   │   │ │ └─┬ error-ex@1.3.1 </tspan>
<tspan x="10" y="1018">  │ │   │   │ │   └── is-arrayish@0.2.1 </tspan>
<tspan x="10" y="1034">  │ │   │   │ └── pify@2.3.0 </tspan>
<tspan x="10" y="1050">  │ │   │   └── path-type@1.1.0 </tspan>
<tspan x="10" y="1066">  │ │   ├─┬ redent@1.0.0 </tspan>
<tspan x="10" y="1082">  │ │   │ ├─┬ indent-string@2.1.0 </tspan>
<tspan x="10" y="1098">  │ │   │ │ └─┬ repeating@2.0.1 </tspan>
<tspan x="10" y="1114">  │ │   │ │   └─┬ is-finite@1.0.2 </tspan>
<tspan x="10" y="1130">  │ │   │ │     └── number-is-nan@1.0.1 </tspan>
<tspan x="10" y="1146">  │ │   │ └── strip-indent@1.0.1 </tspan>
<tspan x="10" y="1162">  │ │   └── trim-newlines@1.0.0 </tspan>
<tspan x="10" y="1178">  │ ├── lodash._reinterpolate@2.4.1 </tspan>
<tspan x="10" y="1194">  │ ├─┬ lodash.template@2.4.1 </tspan>
<tspan x="10" y="1210">  │ │ ├── lodash._escapestringchar@2.4.1 </tspan>
<tspan x="10" y="1226">  │ │ ├─┬ lodash.defaults@2.4.1 </tspan>
<tspan x="10" y="1242">  │ │ │ └── lodash._objecttypes@2.4.1 </tspan>
<tspan x="10" y="1258">  │ │ ├─┬ lodash.escape@2.4.1 </tspan>
<tspan x="10" y="1274">  │ │ │ ├─┬ lodash._escapehtmlchar@2.4.1 </tspan>
<tspan x="10" y="1290">  │ │ │ │ └── lodash._htmlescapes@2.4.1 </tspan>
<tspan x="10" y="1306">  │ │ │ └── lodash._reunescapedhtml@2.4.1 </tspan>
<tspan x="10" y="1322">  │ │ ├─┬ lodash.keys@2.4.1 </tspan>
<tspan x="10" y="1338">  │ │ │ ├── lodash._isnative@2.4.1 </tspan>
<tspan x="10" y="1354">  │ │ │ ├── lodash._shimkeys@2.4.1 </tspan>
<tspan x="10" y="1370">  │ │ │ └── lodash.isobject@2.4.1 </tspan>
<tspan x="10" y="1386">  │ │ ├── lodash.templatesettings@2.4.1 </tspan>
<tspan x="10" y="1402">  │ │ └── lodash.values@2.4.1 </tspan>
<tspan x="10" y="1418">  │ ├── minimist@0.2.0 </tspan>
<tspan x="10" y="1434">  │ ├─┬ multipipe@0.1.2 </tspan>
<tspan x="10" y="1450">  │ │ └─┬ duplexer2@0.0.2 </tspan>
<tspan x="10" y="1466">  │ │   └── readable-stream@1.1.14 </tspan>
<tspan x="10" y="1482">  │ ├─┬ through2@0.5.1 </tspan>
<tspan x="10" y="1498">  │ │ ├─┬ readable-stream@1.0.34 </tspan>
<tspan x="10" y="1514">  │ │ │ ├── core-util-is@1.0.2 </tspan>
<tspan x="10" y="1530">  │ │ │ ├── isarray@0.0.1 </tspan>
<tspan x="10" y="1546">  │ │ │ └── string_decoder@0.10.31 </tspan>
<tspan x="10" y="1562">  │ │ └── xtend@3.0.0 </tspan>
<tspan x="10" y="1578">  │ └─┬ vinyl@0.2.3 </tspan>
<tspan x="10" y="1594">  │   └── clone-stats@0.0.1 </tspan>
<tspan x="10" y="1610">  ├── source-map@0.5.6 </tspan>
<tspan x="10" y="1626">  ├─┬ strip-bom@2.0.0 </tspan>
<tspan x="10" y="1642">  │ └── is-utf8@0.2.1 </tspan>
<tspan x="10" y="1658">  └── vinyl-sourcemaps-apply@0.2.1</tspan>
</text>
</svg>
